<mxfile host="Electron" modified="2024-06-20T19:46:35.993Z" agent="Mozilla/5.0 (Windows NT 10.0; Win64; x64) AppleWebKit/537.36 (KHTML, like Gecko) draw.io/24.5.3 Chrome/124.0.6367.207 Electron/30.0.6 Safari/537.36" version="24.5.3" etag="Ns0cdDsC7vfEDw0y8-XX" type="device">
  <diagram name="PÃ¡gina-1" id="QmQAAPrOhU4GMJox6sLI">
    <mxGraphModel dx="2486" dy="669" grid="1" gridSize="10" guides="1" tooltips="1" connect="1" arrows="1" fold="1" page="1" pageScale="1" pageWidth="827" pageHeight="1169" math="0" shadow="0">
      <root>
        <mxCell id="0" />
        <mxCell id="1" parent="0" />
        <mxCell id="72" value="role_participant" style="ellipse;whiteSpace=wrap;html=1;align=center;fontStyle=0" parent="1" vertex="1">
          <mxGeometry x="122" y="564" width="95" height="21" as="geometry" />
        </mxCell>
        <mxCell id="-sqe8g5yzWZDZ1aWcnI--123" value="id" style="ellipse;whiteSpace=wrap;html=1;align=center;fontStyle=4;" parent="1" vertex="1">
          <mxGeometry x="180.5" y="538.5" width="35" height="20" as="geometry" />
        </mxCell>
        <mxCell id="94" value="active" style="ellipse;whiteSpace=wrap;html=1;align=center;fontStyle=0" parent="1" vertex="1">
          <mxGeometry x="154" y="589.5" width="63" height="21" as="geometry" />
        </mxCell>
        <mxCell id="133" value="acepted_at" style="ellipse;whiteSpace=wrap;html=1;align=center;" parent="1" vertex="1">
          <mxGeometry x="134" y="640.5" width="83" height="19.5" as="geometry" />
        </mxCell>
        <mxCell id="144" value="&lt;span style=&quot;border-bottom: 1px dotted&quot;&gt;sended_at&lt;/span&gt;" style="ellipse;whiteSpace=wrap;html=1;align=center;" parent="1" vertex="1">
          <mxGeometry x="142.5" y="615" width="74.5" height="21" as="geometry" />
        </mxCell>
        <mxCell id="-sqe8g5yzWZDZ1aWcnI--1" style="edgeStyle=orthogonalEdgeStyle;rounded=0;orthogonalLoop=1;jettySize=auto;html=1;exitX=1;exitY=1;exitDx=0;exitDy=0;entryX=0.5;entryY=1;entryDx=0;entryDy=0;endArrow=none;endFill=0;" parent="1" source="-sqe8g5yzWZDZ1aWcnI--3" target="-sqe8g5yzWZDZ1aWcnI--15" edge="1">
          <mxGeometry relative="1" as="geometry" />
        </mxCell>
        <mxCell id="123" style="edgeStyle=none;html=1;entryX=0.5;entryY=0;entryDx=0;entryDy=0;endArrow=none;endFill=0;" parent="1" source="-sqe8g5yzWZDZ1aWcnI--3" target="-sqe8g5yzWZDZ1aWcnI--116" edge="1">
          <mxGeometry relative="1" as="geometry">
            <mxPoint x="321.99999999999955" y="412" as="targetPoint" />
          </mxGeometry>
        </mxCell>
        <mxCell id="avje80JcjZm-CiL74gmf-193" style="edgeStyle=orthogonalEdgeStyle;rounded=0;orthogonalLoop=1;jettySize=auto;html=1;entryX=1;entryY=0.5;entryDx=0;entryDy=0;endArrow=none;endFill=0;" edge="1" parent="1" source="-sqe8g5yzWZDZ1aWcnI--3" target="-sqe8g5yzWZDZ1aWcnI--7">
          <mxGeometry relative="1" as="geometry" />
        </mxCell>
        <mxCell id="avje80JcjZm-CiL74gmf-194" style="edgeStyle=orthogonalEdgeStyle;rounded=0;orthogonalLoop=1;jettySize=auto;html=1;entryX=1;entryY=0.5;entryDx=0;entryDy=0;endArrow=none;endFill=0;" edge="1" parent="1" source="-sqe8g5yzWZDZ1aWcnI--3" target="-sqe8g5yzWZDZ1aWcnI--8">
          <mxGeometry relative="1" as="geometry" />
        </mxCell>
        <mxCell id="avje80JcjZm-CiL74gmf-195" style="edgeStyle=orthogonalEdgeStyle;rounded=0;orthogonalLoop=1;jettySize=auto;html=1;entryX=1;entryY=0.5;entryDx=0;entryDy=0;endArrow=none;endFill=0;" edge="1" parent="1" source="-sqe8g5yzWZDZ1aWcnI--3" target="-sqe8g5yzWZDZ1aWcnI--12">
          <mxGeometry relative="1" as="geometry" />
        </mxCell>
        <mxCell id="avje80JcjZm-CiL74gmf-196" style="edgeStyle=orthogonalEdgeStyle;rounded=0;orthogonalLoop=1;jettySize=auto;html=1;entryX=1;entryY=0.5;entryDx=0;entryDy=0;endArrow=none;endFill=0;" edge="1" parent="1" source="-sqe8g5yzWZDZ1aWcnI--3" target="tt112cmXK7fdP1q24PZr-2">
          <mxGeometry relative="1" as="geometry" />
        </mxCell>
        <mxCell id="avje80JcjZm-CiL74gmf-197" style="edgeStyle=orthogonalEdgeStyle;rounded=0;orthogonalLoop=1;jettySize=auto;html=1;entryX=1;entryY=0.5;entryDx=0;entryDy=0;endArrow=none;endFill=0;" edge="1" parent="1" source="-sqe8g5yzWZDZ1aWcnI--3" target="tt112cmXK7fdP1q24PZr-4">
          <mxGeometry relative="1" as="geometry" />
        </mxCell>
        <mxCell id="avje80JcjZm-CiL74gmf-199" style="edgeStyle=orthogonalEdgeStyle;rounded=0;orthogonalLoop=1;jettySize=auto;html=1;entryX=1;entryY=0.5;entryDx=0;entryDy=0;endArrow=none;endFill=0;" edge="1" parent="1" source="-sqe8g5yzWZDZ1aWcnI--3" target="147">
          <mxGeometry relative="1" as="geometry" />
        </mxCell>
        <mxCell id="avje80JcjZm-CiL74gmf-200" style="edgeStyle=orthogonalEdgeStyle;rounded=0;orthogonalLoop=1;jettySize=auto;html=1;entryX=1;entryY=0.5;entryDx=0;entryDy=0;endArrow=none;endFill=0;" edge="1" parent="1" source="-sqe8g5yzWZDZ1aWcnI--3" target="148">
          <mxGeometry relative="1" as="geometry" />
        </mxCell>
        <mxCell id="-sqe8g5yzWZDZ1aWcnI--3" value="Account" style="whiteSpace=wrap;html=1;align=center;" parent="1" vertex="1">
          <mxGeometry x="272" y="237" width="100" height="40" as="geometry" />
        </mxCell>
        <mxCell id="avje80JcjZm-CiL74gmf-192" style="edgeStyle=orthogonalEdgeStyle;rounded=0;orthogonalLoop=1;jettySize=auto;html=1;entryX=0;entryY=0.5;entryDx=0;entryDy=0;endArrow=none;endFill=0;" edge="1" parent="1" source="-sqe8g5yzWZDZ1aWcnI--5" target="-sqe8g5yzWZDZ1aWcnI--3">
          <mxGeometry relative="1" as="geometry" />
        </mxCell>
        <mxCell id="-sqe8g5yzWZDZ1aWcnI--5" value="id" style="ellipse;whiteSpace=wrap;html=1;align=center;fontStyle=4;" parent="1" vertex="1">
          <mxGeometry x="180.5" y="77" width="33" height="20" as="geometry" />
        </mxCell>
        <mxCell id="-sqe8g5yzWZDZ1aWcnI--7" value="username" style="ellipse;whiteSpace=wrap;html=1;align=center;" parent="1" vertex="1">
          <mxGeometry x="150" y="107" width="63.5" height="20" as="geometry" />
        </mxCell>
        <mxCell id="-sqe8g5yzWZDZ1aWcnI--8" value="email" style="ellipse;whiteSpace=wrap;html=1;align=center;" parent="1" vertex="1">
          <mxGeometry x="150.5" y="138" width="63" height="18" as="geometry" />
        </mxCell>
        <mxCell id="-sqe8g5yzWZDZ1aWcnI--12" value="hashed_password" style="ellipse;whiteSpace=wrap;html=1;align=center;" parent="1" vertex="1">
          <mxGeometry x="100" y="166" width="115" height="20" as="geometry" />
        </mxCell>
        <mxCell id="-sqe8g5yzWZDZ1aWcnI--14" style="edgeStyle=orthogonalEdgeStyle;rounded=0;orthogonalLoop=1;jettySize=auto;html=1;exitX=0.5;exitY=0;exitDx=0;exitDy=0;entryX=1;entryY=0;entryDx=0;entryDy=0;endArrow=none;endFill=0;" parent="1" source="-sqe8g5yzWZDZ1aWcnI--15" target="-sqe8g5yzWZDZ1aWcnI--3" edge="1">
          <mxGeometry relative="1" as="geometry" />
        </mxCell>
        <mxCell id="avje80JcjZm-CiL74gmf-202" style="edgeStyle=orthogonalEdgeStyle;rounded=0;orthogonalLoop=1;jettySize=auto;html=1;entryX=0;entryY=0.5;entryDx=0;entryDy=0;endArrow=none;endFill=0;" edge="1" parent="1" source="-sqe8g5yzWZDZ1aWcnI--15" target="-sqe8g5yzWZDZ1aWcnI--21">
          <mxGeometry relative="1" as="geometry" />
        </mxCell>
        <mxCell id="avje80JcjZm-CiL74gmf-203" style="edgeStyle=orthogonalEdgeStyle;rounded=0;orthogonalLoop=1;jettySize=auto;html=1;entryX=0;entryY=0.5;entryDx=0;entryDy=0;endArrow=none;endFill=0;" edge="1" parent="1" source="-sqe8g5yzWZDZ1aWcnI--15" target="-sqe8g5yzWZDZ1aWcnI--19">
          <mxGeometry relative="1" as="geometry" />
        </mxCell>
        <mxCell id="avje80JcjZm-CiL74gmf-204" style="edgeStyle=orthogonalEdgeStyle;rounded=0;orthogonalLoop=1;jettySize=auto;html=1;entryX=0;entryY=0.5;entryDx=0;entryDy=0;endArrow=none;endFill=0;" edge="1" parent="1" source="-sqe8g5yzWZDZ1aWcnI--15" target="-sqe8g5yzWZDZ1aWcnI--32">
          <mxGeometry relative="1" as="geometry" />
        </mxCell>
        <mxCell id="-sqe8g5yzWZDZ1aWcnI--15" value="friend" style="shape=associativeEntity;whiteSpace=wrap;html=1;align=center;" parent="1" vertex="1">
          <mxGeometry x="517" y="232" width="90" height="50" as="geometry" />
        </mxCell>
        <mxCell id="-sqe8g5yzWZDZ1aWcnI--16" value="N" style="text;html=1;align=center;verticalAlign=middle;resizable=0;points=[];autosize=1;strokeColor=none;fillColor=none;" parent="1" vertex="1">
          <mxGeometry x="372" y="272" width="30" height="30" as="geometry" />
        </mxCell>
        <mxCell id="-sqe8g5yzWZDZ1aWcnI--17" value="N" style="text;html=1;align=center;verticalAlign=middle;resizable=0;points=[];autosize=1;strokeColor=none;fillColor=none;" parent="1" vertex="1">
          <mxGeometry x="372" y="210" width="30" height="30" as="geometry" />
        </mxCell>
        <mxCell id="-sqe8g5yzWZDZ1aWcnI--19" value="sended_at" style="ellipse;whiteSpace=wrap;html=1;align=center;" parent="1" vertex="1">
          <mxGeometry x="697" y="243" width="100" height="28" as="geometry" />
        </mxCell>
        <mxCell id="-sqe8g5yzWZDZ1aWcnI--21" value="id" style="ellipse;whiteSpace=wrap;html=1;align=center;fontStyle=4;" parent="1" vertex="1">
          <mxGeometry x="697" y="215" width="45" height="22" as="geometry" />
        </mxCell>
        <mxCell id="-sqe8g5yzWZDZ1aWcnI--24" value="PK" style="text;html=1;align=center;verticalAlign=middle;resizable=0;points=[];autosize=1;strokeColor=none;fillColor=none;" parent="1" vertex="1">
          <mxGeometry x="140.5" y="70" width="40" height="30" as="geometry" />
        </mxCell>
        <mxCell id="-sqe8g5yzWZDZ1aWcnI--25" value="PK" style="text;html=1;align=center;verticalAlign=middle;resizable=0;points=[];autosize=1;strokeColor=none;fillColor=none;" parent="1" vertex="1">
          <mxGeometry x="742" y="207" width="40" height="30" as="geometry" />
        </mxCell>
        <mxCell id="-sqe8g5yzWZDZ1aWcnI--26" value="M" style="text;html=1;align=center;verticalAlign=middle;resizable=0;points=[];autosize=1;strokeColor=none;fillColor=none;" parent="1" vertex="1">
          <mxGeometry x="120" y="102" width="30" height="30" as="geometry" />
        </mxCell>
        <mxCell id="-sqe8g5yzWZDZ1aWcnI--27" value="M" style="text;html=1;align=center;verticalAlign=middle;resizable=0;points=[];autosize=1;strokeColor=none;fillColor=none;" parent="1" vertex="1">
          <mxGeometry x="70" y="161" width="30" height="30" as="geometry" />
        </mxCell>
        <mxCell id="-sqe8g5yzWZDZ1aWcnI--29" value="M" style="text;html=1;align=center;verticalAlign=middle;resizable=0;points=[];autosize=1;strokeColor=none;fillColor=none;" parent="1" vertex="1">
          <mxGeometry x="797" y="243" width="30" height="30" as="geometry" />
        </mxCell>
        <mxCell id="-sqe8g5yzWZDZ1aWcnI--32" value="acepted_at" style="ellipse;whiteSpace=wrap;html=1;align=center;" parent="1" vertex="1">
          <mxGeometry x="696" y="277" width="100" height="30" as="geometry" />
        </mxCell>
        <mxCell id="tt112cmXK7fdP1q24PZr-34" style="edgeStyle=orthogonalEdgeStyle;rounded=0;orthogonalLoop=1;jettySize=auto;html=1;exitX=0.5;exitY=1;exitDx=0;exitDy=0;entryX=1;entryY=0.5;entryDx=0;entryDy=0;endArrow=none;endFill=0;" parent="1" source="-sqe8g5yzWZDZ1aWcnI--35" target="tt112cmXK7fdP1q24PZr-32" edge="1">
          <mxGeometry relative="1" as="geometry" />
        </mxCell>
        <mxCell id="avje80JcjZm-CiL74gmf-171" style="edgeStyle=orthogonalEdgeStyle;rounded=0;orthogonalLoop=1;jettySize=auto;html=1;entryX=0;entryY=0.5;entryDx=0;entryDy=0;endArrow=none;endFill=0;" edge="1" parent="1" source="-sqe8g5yzWZDZ1aWcnI--35" target="-sqe8g5yzWZDZ1aWcnI--39">
          <mxGeometry relative="1" as="geometry" />
        </mxCell>
        <mxCell id="avje80JcjZm-CiL74gmf-174" style="edgeStyle=orthogonalEdgeStyle;rounded=0;orthogonalLoop=1;jettySize=auto;html=1;entryX=0;entryY=0.5;entryDx=0;entryDy=0;endArrow=none;endFill=0;" edge="1" parent="1" source="-sqe8g5yzWZDZ1aWcnI--35" target="-sqe8g5yzWZDZ1aWcnI--40">
          <mxGeometry relative="1" as="geometry" />
        </mxCell>
        <mxCell id="avje80JcjZm-CiL74gmf-175" style="edgeStyle=orthogonalEdgeStyle;rounded=0;orthogonalLoop=1;jettySize=auto;html=1;entryX=0;entryY=0.5;entryDx=0;entryDy=0;endArrow=none;endFill=0;" edge="1" parent="1" source="-sqe8g5yzWZDZ1aWcnI--35" target="-sqe8g5yzWZDZ1aWcnI--41">
          <mxGeometry relative="1" as="geometry" />
        </mxCell>
        <mxCell id="avje80JcjZm-CiL74gmf-176" style="edgeStyle=orthogonalEdgeStyle;rounded=0;orthogonalLoop=1;jettySize=auto;html=1;entryX=0;entryY=0.5;entryDx=0;entryDy=0;endArrow=none;endFill=0;" edge="1" parent="1" source="-sqe8g5yzWZDZ1aWcnI--35" target="tt112cmXK7fdP1q24PZr-15">
          <mxGeometry relative="1" as="geometry" />
        </mxCell>
        <mxCell id="avje80JcjZm-CiL74gmf-178" style="edgeStyle=orthogonalEdgeStyle;rounded=0;orthogonalLoop=1;jettySize=auto;html=1;entryX=0;entryY=0.5;entryDx=0;entryDy=0;endArrow=none;endFill=0;" edge="1" parent="1" source="-sqe8g5yzWZDZ1aWcnI--35" target="avje80JcjZm-CiL74gmf-170">
          <mxGeometry relative="1" as="geometry" />
        </mxCell>
        <mxCell id="avje80JcjZm-CiL74gmf-179" style="edgeStyle=orthogonalEdgeStyle;rounded=0;orthogonalLoop=1;jettySize=auto;html=1;entryX=0;entryY=0.5;entryDx=0;entryDy=0;endArrow=none;endFill=0;" edge="1" parent="1" source="-sqe8g5yzWZDZ1aWcnI--35" target="-sqe8g5yzWZDZ1aWcnI--53">
          <mxGeometry relative="1" as="geometry" />
        </mxCell>
        <mxCell id="avje80JcjZm-CiL74gmf-180" style="edgeStyle=orthogonalEdgeStyle;rounded=0;orthogonalLoop=1;jettySize=auto;html=1;entryX=0;entryY=0.5;entryDx=0;entryDy=0;endArrow=none;endFill=0;" edge="1" parent="1" source="-sqe8g5yzWZDZ1aWcnI--35" target="-sqe8g5yzWZDZ1aWcnI--46">
          <mxGeometry relative="1" as="geometry" />
        </mxCell>
        <mxCell id="avje80JcjZm-CiL74gmf-181" style="edgeStyle=orthogonalEdgeStyle;rounded=0;orthogonalLoop=1;jettySize=auto;html=1;entryX=0;entryY=0.5;entryDx=0;entryDy=0;endArrow=none;endFill=0;" edge="1" parent="1" source="-sqe8g5yzWZDZ1aWcnI--35" target="-sqe8g5yzWZDZ1aWcnI--48">
          <mxGeometry relative="1" as="geometry" />
        </mxCell>
        <mxCell id="avje80JcjZm-CiL74gmf-182" style="edgeStyle=orthogonalEdgeStyle;rounded=0;orthogonalLoop=1;jettySize=auto;html=1;entryX=0;entryY=0.5;entryDx=0;entryDy=0;endArrow=none;endFill=0;" edge="1" parent="1" source="-sqe8g5yzWZDZ1aWcnI--35" target="-sqe8g5yzWZDZ1aWcnI--50">
          <mxGeometry relative="1" as="geometry" />
        </mxCell>
        <mxCell id="avje80JcjZm-CiL74gmf-183" style="edgeStyle=orthogonalEdgeStyle;rounded=0;orthogonalLoop=1;jettySize=auto;html=1;entryX=0;entryY=0.5;entryDx=0;entryDy=0;endArrow=none;endFill=0;" edge="1" parent="1" source="-sqe8g5yzWZDZ1aWcnI--35" target="-sqe8g5yzWZDZ1aWcnI--52">
          <mxGeometry relative="1" as="geometry" />
        </mxCell>
        <mxCell id="avje80JcjZm-CiL74gmf-186" style="edgeStyle=orthogonalEdgeStyle;rounded=0;orthogonalLoop=1;jettySize=auto;html=1;entryX=0;entryY=0.5;entryDx=0;entryDy=0;endArrow=none;endFill=0;" edge="1" parent="1" source="-sqe8g5yzWZDZ1aWcnI--35" target="-sqe8g5yzWZDZ1aWcnI--54">
          <mxGeometry relative="1" as="geometry" />
        </mxCell>
        <mxCell id="avje80JcjZm-CiL74gmf-187" style="edgeStyle=orthogonalEdgeStyle;rounded=0;orthogonalLoop=1;jettySize=auto;html=1;entryX=0;entryY=0.5;entryDx=0;entryDy=0;endArrow=none;endFill=0;" edge="1" parent="1" source="-sqe8g5yzWZDZ1aWcnI--35" target="-sqe8g5yzWZDZ1aWcnI--55">
          <mxGeometry relative="1" as="geometry" />
        </mxCell>
        <mxCell id="avje80JcjZm-CiL74gmf-188" style="edgeStyle=orthogonalEdgeStyle;rounded=0;orthogonalLoop=1;jettySize=auto;html=1;entryX=0;entryY=0.5;entryDx=0;entryDy=0;endArrow=none;endFill=0;" edge="1" parent="1" source="-sqe8g5yzWZDZ1aWcnI--35" target="tt112cmXK7fdP1q24PZr-8">
          <mxGeometry relative="1" as="geometry" />
        </mxCell>
        <mxCell id="avje80JcjZm-CiL74gmf-190" style="edgeStyle=orthogonalEdgeStyle;rounded=0;orthogonalLoop=1;jettySize=auto;html=1;entryX=0;entryY=0.5;entryDx=0;entryDy=0;endArrow=none;endFill=0;" edge="1" parent="1" source="-sqe8g5yzWZDZ1aWcnI--35" target="-sqe8g5yzWZDZ1aWcnI--42">
          <mxGeometry relative="1" as="geometry" />
        </mxCell>
        <mxCell id="avje80JcjZm-CiL74gmf-191" style="edgeStyle=orthogonalEdgeStyle;rounded=0;orthogonalLoop=1;jettySize=auto;html=1;entryX=0;entryY=0.5;entryDx=0;entryDy=0;endArrow=none;endFill=0;" edge="1" parent="1" source="-sqe8g5yzWZDZ1aWcnI--35" target="164">
          <mxGeometry relative="1" as="geometry" />
        </mxCell>
        <mxCell id="-sqe8g5yzWZDZ1aWcnI--35" value="Meetup" style="whiteSpace=wrap;html=1;align=center;" parent="1" vertex="1">
          <mxGeometry x="272" y="865" width="100" height="40" as="geometry" />
        </mxCell>
        <mxCell id="-sqe8g5yzWZDZ1aWcnI--39" value="&lt;u&gt;id&lt;/u&gt;" style="ellipse;whiteSpace=wrap;html=1;align=center;" parent="1" vertex="1">
          <mxGeometry x="586" y="870" width="40" height="30" as="geometry" />
        </mxCell>
        <mxCell id="-sqe8g5yzWZDZ1aWcnI--40" value="title" style="ellipse;whiteSpace=wrap;html=1;align=center;fontStyle=0" parent="1" vertex="1">
          <mxGeometry x="586" y="905" width="80" height="30" as="geometry" />
        </mxCell>
        <mxCell id="-sqe8g5yzWZDZ1aWcnI--41" value="information" style="ellipse;whiteSpace=wrap;html=1;align=center;" parent="1" vertex="1">
          <mxGeometry x="586" y="940" width="80" height="30" as="geometry" />
        </mxCell>
        <mxCell id="-sqe8g5yzWZDZ1aWcnI--42" value="image_data" style="ellipse;shape=doubleEllipse;margin=3;whiteSpace=wrap;html=1;align=center;" parent="1" vertex="1">
          <mxGeometry x="585" y="1370" width="95" height="30" as="geometry" />
        </mxCell>
        <mxCell id="-sqe8g5yzWZDZ1aWcnI--46" value="city_address" style="ellipse;whiteSpace=wrap;html=1;align=center;" parent="1" vertex="1">
          <mxGeometry x="590" y="1090" width="80" height="30" as="geometry" />
        </mxCell>
        <mxCell id="-sqe8g5yzWZDZ1aWcnI--48" value="neighborhood_address" style="ellipse;whiteSpace=wrap;html=1;align=center;" parent="1" vertex="1">
          <mxGeometry x="588" y="1130" width="154" height="30" as="geometry" />
        </mxCell>
        <mxCell id="-sqe8g5yzWZDZ1aWcnI--50" value="number_address" style="ellipse;whiteSpace=wrap;html=1;align=center;" parent="1" vertex="1">
          <mxGeometry x="588.5" y="1170" width="113.5" height="30" as="geometry" />
        </mxCell>
        <mxCell id="-sqe8g5yzWZDZ1aWcnI--52" value="street_address" style="ellipse;whiteSpace=wrap;html=1;align=center;" parent="1" vertex="1">
          <mxGeometry x="588" y="1210" width="94" height="30" as="geometry" />
        </mxCell>
        <mxCell id="-sqe8g5yzWZDZ1aWcnI--53" value="state_address" style="ellipse;whiteSpace=wrap;html=1;align=center;" parent="1" vertex="1">
          <mxGeometry x="588" y="1053" width="80" height="30" as="geometry" />
        </mxCell>
        <mxCell id="-sqe8g5yzWZDZ1aWcnI--54" value="start_date" style="ellipse;whiteSpace=wrap;html=1;align=center;" parent="1" vertex="1">
          <mxGeometry x="588" y="1250" width="80" height="30" as="geometry" />
        </mxCell>
        <mxCell id="-sqe8g5yzWZDZ1aWcnI--55" value="end_date" style="ellipse;whiteSpace=wrap;html=1;align=center;" parent="1" vertex="1">
          <mxGeometry x="588" y="1290" width="80" height="30" as="geometry" />
        </mxCell>
        <mxCell id="-sqe8g5yzWZDZ1aWcnI--56" value="PK" style="text;html=1;align=center;verticalAlign=middle;resizable=0;points=[];autosize=1;strokeColor=none;fillColor=none;" parent="1" vertex="1">
          <mxGeometry x="623" y="870" width="40" height="30" as="geometry" />
        </mxCell>
        <mxCell id="-sqe8g5yzWZDZ1aWcnI--58" value="M" style="text;html=1;align=center;verticalAlign=middle;resizable=0;points=[];autosize=1;strokeColor=none;fillColor=none;" parent="1" vertex="1">
          <mxGeometry x="670" y="1290" width="30" height="30" as="geometry" />
        </mxCell>
        <mxCell id="avje80JcjZm-CiL74gmf-211" style="edgeStyle=orthogonalEdgeStyle;rounded=0;orthogonalLoop=1;jettySize=auto;html=1;entryX=0;entryY=0.5;entryDx=0;entryDy=0;endArrow=none;endFill=0;" edge="1" parent="1" source="-sqe8g5yzWZDZ1aWcnI--114" target="-sqe8g5yzWZDZ1aWcnI--121">
          <mxGeometry relative="1" as="geometry">
            <Array as="points">
              <mxPoint x="650" y="549" />
              <mxPoint x="650" y="525" />
            </Array>
          </mxGeometry>
        </mxCell>
        <mxCell id="avje80JcjZm-CiL74gmf-212" style="edgeStyle=orthogonalEdgeStyle;rounded=0;orthogonalLoop=1;jettySize=auto;html=1;entryX=0;entryY=0.5;entryDx=0;entryDy=0;endArrow=none;endFill=0;" edge="1" parent="1" source="-sqe8g5yzWZDZ1aWcnI--114" target="-sqe8g5yzWZDZ1aWcnI--125">
          <mxGeometry relative="1" as="geometry" />
        </mxCell>
        <mxCell id="avje80JcjZm-CiL74gmf-213" style="edgeStyle=orthogonalEdgeStyle;rounded=0;orthogonalLoop=1;jettySize=auto;html=1;endArrow=none;endFill=0;" edge="1" parent="1" source="-sqe8g5yzWZDZ1aWcnI--114" target="2">
          <mxGeometry relative="1" as="geometry">
            <Array as="points">
              <mxPoint x="650" y="549" />
              <mxPoint x="650" y="577" />
            </Array>
          </mxGeometry>
        </mxCell>
        <mxCell id="-sqe8g5yzWZDZ1aWcnI--114" value="Management" style="shape=ext;margin=3;double=1;whiteSpace=wrap;html=1;align=center;" parent="1" vertex="1">
          <mxGeometry x="517" y="529" width="110" height="40" as="geometry" />
        </mxCell>
        <mxCell id="126" style="edgeStyle=none;html=1;entryX=0;entryY=0.5;entryDx=0;entryDy=0;endArrow=none;endFill=0;" parent="1" source="-sqe8g5yzWZDZ1aWcnI--116" target="125" edge="1">
          <mxGeometry relative="1" as="geometry" />
        </mxCell>
        <mxCell id="avje80JcjZm-CiL74gmf-206" style="edgeStyle=orthogonalEdgeStyle;rounded=0;orthogonalLoop=1;jettySize=auto;html=1;endArrow=none;endFill=0;" edge="1" parent="1" source="-sqe8g5yzWZDZ1aWcnI--116" target="-sqe8g5yzWZDZ1aWcnI--123">
          <mxGeometry relative="1" as="geometry" />
        </mxCell>
        <mxCell id="avje80JcjZm-CiL74gmf-207" style="edgeStyle=orthogonalEdgeStyle;rounded=0;orthogonalLoop=1;jettySize=auto;html=1;entryX=1;entryY=0.5;entryDx=0;entryDy=0;endArrow=none;endFill=0;" edge="1" parent="1" source="-sqe8g5yzWZDZ1aWcnI--116" target="72">
          <mxGeometry relative="1" as="geometry" />
        </mxCell>
        <mxCell id="avje80JcjZm-CiL74gmf-208" style="edgeStyle=orthogonalEdgeStyle;rounded=0;orthogonalLoop=1;jettySize=auto;html=1;entryX=1;entryY=0.5;entryDx=0;entryDy=0;endArrow=none;endFill=0;" edge="1" parent="1" source="-sqe8g5yzWZDZ1aWcnI--116" target="94">
          <mxGeometry relative="1" as="geometry" />
        </mxCell>
        <mxCell id="avje80JcjZm-CiL74gmf-209" style="edgeStyle=orthogonalEdgeStyle;rounded=0;orthogonalLoop=1;jettySize=auto;html=1;entryX=1;entryY=0.5;entryDx=0;entryDy=0;endArrow=none;endFill=0;" edge="1" parent="1" source="-sqe8g5yzWZDZ1aWcnI--116" target="144">
          <mxGeometry relative="1" as="geometry" />
        </mxCell>
        <mxCell id="avje80JcjZm-CiL74gmf-210" style="edgeStyle=orthogonalEdgeStyle;rounded=0;orthogonalLoop=1;jettySize=auto;html=1;entryX=1;entryY=0.5;entryDx=0;entryDy=0;endArrow=none;endFill=0;" edge="1" parent="1" source="-sqe8g5yzWZDZ1aWcnI--116" target="133">
          <mxGeometry relative="1" as="geometry" />
        </mxCell>
        <mxCell id="-sqe8g5yzWZDZ1aWcnI--116" value="Participate" style="shape=associativeEntity;whiteSpace=wrap;html=1;align=center;" parent="1" vertex="1">
          <mxGeometry x="277" y="528" width="90" height="40" as="geometry" />
        </mxCell>
        <mxCell id="-sqe8g5yzWZDZ1aWcnI--119" value="N" style="text;html=1;align=center;verticalAlign=middle;resizable=0;points=[];autosize=1;strokeColor=none;fillColor=none;" parent="1" vertex="1">
          <mxGeometry x="291.5" y="277" width="30" height="30" as="geometry" />
        </mxCell>
        <mxCell id="-sqe8g5yzWZDZ1aWcnI--121" value="id" style="ellipse;whiteSpace=wrap;html=1;align=center;fontStyle=4;" parent="1" vertex="1">
          <mxGeometry x="676" y="516" width="40" height="18" as="geometry" />
        </mxCell>
        <mxCell id="-sqe8g5yzWZDZ1aWcnI--125" value="managment_at" style="ellipse;whiteSpace=wrap;html=1;align=center;" parent="1" vertex="1">
          <mxGeometry x="676" y="538.5" width="100" height="22" as="geometry" />
        </mxCell>
        <mxCell id="-sqe8g5yzWZDZ1aWcnI--128" value="PK" style="text;html=1;align=center;verticalAlign=middle;resizable=0;points=[];autosize=1;strokeColor=none;fillColor=none;" parent="1" vertex="1">
          <mxGeometry x="715" y="510" width="40" height="30" as="geometry" />
        </mxCell>
        <mxCell id="-sqe8g5yzWZDZ1aWcnI--129" value="PK" style="text;html=1;align=center;verticalAlign=middle;resizable=0;points=[];autosize=1;strokeColor=none;fillColor=none;" parent="1" vertex="1">
          <mxGeometry x="142" y="536" width="40" height="30" as="geometry" />
        </mxCell>
        <mxCell id="-sqe8g5yzWZDZ1aWcnI--131" value="M" style="text;html=1;align=center;verticalAlign=middle;resizable=0;points=[];autosize=1;strokeColor=none;fillColor=none;" parent="1" vertex="1">
          <mxGeometry x="776" y="534.5" width="30" height="30" as="geometry" />
        </mxCell>
        <mxCell id="-sqe8g5yzWZDZ1aWcnI--138" value="N" style="text;html=1;align=center;verticalAlign=middle;resizable=0;points=[];autosize=1;strokeColor=none;fillColor=none;" parent="1" vertex="1">
          <mxGeometry x="272" y="835" width="30" height="30" as="geometry" />
        </mxCell>
        <mxCell id="tt112cmXK7fdP1q24PZr-1" value="M" style="text;html=1;align=center;verticalAlign=middle;resizable=0;points=[];autosize=1;strokeColor=none;fillColor=none;" parent="1" vertex="1">
          <mxGeometry x="668" y="1250" width="30" height="30" as="geometry" />
        </mxCell>
        <mxCell id="tt112cmXK7fdP1q24PZr-2" value="iamge_data" style="ellipse;whiteSpace=wrap;html=1;align=center;" parent="1" vertex="1">
          <mxGeometry x="130" y="192" width="83.5" height="18" as="geometry" />
        </mxCell>
        <mxCell id="tt112cmXK7fdP1q24PZr-4" value="nickname" style="ellipse;whiteSpace=wrap;html=1;align=center;" parent="1" vertex="1">
          <mxGeometry x="135.5" y="220" width="78" height="20" as="geometry" />
        </mxCell>
        <mxCell id="tt112cmXK7fdP1q24PZr-6" value="M D UK2" style="text;html=1;align=center;verticalAlign=middle;resizable=0;points=[];autosize=1;strokeColor=none;fillColor=none;" parent="1" vertex="1">
          <mxGeometry x="67" y="215" width="70" height="30" as="geometry" />
        </mxCell>
        <mxCell id="tt112cmXK7fdP1q24PZr-8" value="stage" style="ellipse;whiteSpace=wrap;html=1;align=center;" parent="1" vertex="1">
          <mxGeometry x="588" y="1330" width="80" height="30" as="geometry" />
        </mxCell>
        <mxCell id="tt112cmXK7fdP1q24PZr-10" value="M" style="text;html=1;align=center;verticalAlign=middle;resizable=0;points=[];autosize=1;strokeColor=none;fillColor=none;" parent="1" vertex="1">
          <mxGeometry x="665" y="1330" width="30" height="30" as="geometry" />
        </mxCell>
        <mxCell id="tt112cmXK7fdP1q24PZr-11" value="" style="strokeWidth=2;html=1;shape=mxgraph.flowchart.annotation_1;align=left;pointerEvents=1;rotation=-180;" parent="1" vertex="1">
          <mxGeometry x="676" y="905" width="5" height="110" as="geometry" />
        </mxCell>
        <mxCell id="tt112cmXK7fdP1q24PZr-12" value="M D UK1" style="text;html=1;align=center;verticalAlign=middle;resizable=0;points=[];autosize=1;strokeColor=none;fillColor=none;" parent="1" vertex="1">
          <mxGeometry x="694" y="945" width="70" height="30" as="geometry" />
        </mxCell>
        <mxCell id="tt112cmXK7fdP1q24PZr-15" value="created_at" style="ellipse;whiteSpace=wrap;html=1;align=center;" parent="1" vertex="1">
          <mxGeometry x="587.75" y="980" width="76.5" height="30" as="geometry" />
        </mxCell>
        <mxCell id="tt112cmXK7fdP1q24PZr-18" value="M D UK1" style="text;html=1;align=center;verticalAlign=middle;resizable=0;points=[];autosize=1;strokeColor=none;fillColor=none;" parent="1" vertex="1">
          <mxGeometry x="80.5" y="130" width="70" height="30" as="geometry" />
        </mxCell>
        <mxCell id="tt112cmXK7fdP1q24PZr-35" style="edgeStyle=orthogonalEdgeStyle;rounded=0;orthogonalLoop=1;jettySize=auto;html=1;exitX=0;exitY=0.5;exitDx=0;exitDy=0;entryX=1;entryY=0.5;entryDx=0;entryDy=0;endArrow=none;endFill=0;shape=link;" parent="1" source="tt112cmXK7fdP1q24PZr-32" target="tt112cmXK7fdP1q24PZr-33" edge="1">
          <mxGeometry relative="1" as="geometry" />
        </mxCell>
        <mxCell id="tt112cmXK7fdP1q24PZr-32" value="generate" style="shape=rhombus;double=1;perimeter=rhombusPerimeter;whiteSpace=wrap;html=1;align=center;" parent="1" vertex="1">
          <mxGeometry x="111.25" y="970" width="81.5" height="40" as="geometry" />
        </mxCell>
        <mxCell id="avje80JcjZm-CiL74gmf-214" style="edgeStyle=orthogonalEdgeStyle;rounded=0;orthogonalLoop=1;jettySize=auto;html=1;entryX=1;entryY=0.5;entryDx=0;entryDy=0;endArrow=none;endFill=0;" edge="1" parent="1" source="tt112cmXK7fdP1q24PZr-33" target="tt112cmXK7fdP1q24PZr-38">
          <mxGeometry relative="1" as="geometry">
            <Array as="points">
              <mxPoint x="-210" y="990" />
              <mxPoint x="-210" y="950" />
            </Array>
          </mxGeometry>
        </mxCell>
        <mxCell id="avje80JcjZm-CiL74gmf-215" style="edgeStyle=orthogonalEdgeStyle;rounded=0;orthogonalLoop=1;jettySize=auto;html=1;endArrow=none;endFill=0;" edge="1" parent="1" source="tt112cmXK7fdP1q24PZr-33" target="tt112cmXK7fdP1q24PZr-40">
          <mxGeometry relative="1" as="geometry" />
        </mxCell>
        <mxCell id="avje80JcjZm-CiL74gmf-216" style="edgeStyle=orthogonalEdgeStyle;rounded=0;orthogonalLoop=1;jettySize=auto;html=1;entryX=1;entryY=0.5;entryDx=0;entryDy=0;endArrow=none;endFill=0;" edge="1" parent="1" source="tt112cmXK7fdP1q24PZr-33" target="tt112cmXK7fdP1q24PZr-41">
          <mxGeometry relative="1" as="geometry">
            <Array as="points">
              <mxPoint x="-210" y="990" />
              <mxPoint x="-210" y="1033" />
            </Array>
          </mxGeometry>
        </mxCell>
        <mxCell id="tt112cmXK7fdP1q24PZr-33" value="Expenses" style="shape=ext;margin=3;double=1;whiteSpace=wrap;html=1;align=center;" parent="1" vertex="1">
          <mxGeometry x="-171.5" y="970" width="100" height="40" as="geometry" />
        </mxCell>
        <mxCell id="69" value="" style="edgeStyle=none;shape=link;html=1;" parent="1" source="tt112cmXK7fdP1q24PZr-36" target="tt112cmXK7fdP1q24PZr-33" edge="1">
          <mxGeometry relative="1" as="geometry" />
        </mxCell>
        <mxCell id="tt112cmXK7fdP1q24PZr-36" value="N" style="text;html=1;align=center;verticalAlign=middle;resizable=0;points=[];autosize=1;strokeColor=none;fillColor=none;" parent="1" vertex="1">
          <mxGeometry x="-70" y="988" width="30" height="30" as="geometry" />
        </mxCell>
        <mxCell id="tt112cmXK7fdP1q24PZr-37" value="1" style="text;html=1;align=center;verticalAlign=middle;resizable=0;points=[];autosize=1;strokeColor=none;fillColor=none;" parent="1" vertex="1">
          <mxGeometry x="321" y="910" width="30" height="30" as="geometry" />
        </mxCell>
        <mxCell id="tt112cmXK7fdP1q24PZr-38" value="id" style="ellipse;whiteSpace=wrap;html=1;align=center;fontStyle=4;" parent="1" vertex="1">
          <mxGeometry x="-275" y="940" width="35" height="20" as="geometry" />
        </mxCell>
        <mxCell id="tt112cmXK7fdP1q24PZr-40" value="cost" style="ellipse;whiteSpace=wrap;html=1;align=center;fontStyle=0" parent="1" vertex="1">
          <mxGeometry x="-320" y="975" width="80" height="30" as="geometry" />
        </mxCell>
        <mxCell id="tt112cmXK7fdP1q24PZr-41" value="about" style="ellipse;whiteSpace=wrap;html=1;align=center;fontStyle=0" parent="1" vertex="1">
          <mxGeometry x="-320" y="1018" width="80" height="30" as="geometry" />
        </mxCell>
        <mxCell id="tt112cmXK7fdP1q24PZr-42" value="M" style="text;html=1;align=center;verticalAlign=middle;resizable=0;points=[];autosize=1;strokeColor=none;fillColor=none;" parent="1" vertex="1">
          <mxGeometry x="-350" y="965" width="30" height="30" as="geometry" />
        </mxCell>
        <mxCell id="tt112cmXK7fdP1q24PZr-45" value="M D UK1" style="text;html=1;align=center;verticalAlign=middle;resizable=0;points=[];autosize=1;strokeColor=none;fillColor=none;" parent="1" vertex="1">
          <mxGeometry x="-390" y="1020" width="70" height="30" as="geometry" />
        </mxCell>
        <mxCell id="tt112cmXK7fdP1q24PZr-46" value="PK" style="text;html=1;align=center;verticalAlign=middle;resizable=0;points=[];autosize=1;strokeColor=none;fillColor=none;" parent="1" vertex="1">
          <mxGeometry x="-320" y="935" width="40" height="30" as="geometry" />
        </mxCell>
        <mxCell id="2" value="type_action" style="ellipse;whiteSpace=wrap;html=1;align=center;" parent="1" vertex="1">
          <mxGeometry x="682" y="566" width="78" height="22" as="geometry" />
        </mxCell>
        <mxCell id="6" value="M" style="text;html=1;align=center;verticalAlign=middle;resizable=0;points=[];autosize=1;strokeColor=none;fillColor=none;" parent="1" vertex="1">
          <mxGeometry x="755" y="562" width="30" height="30" as="geometry" />
        </mxCell>
        <mxCell id="41" style="edgeStyle=none;html=1;entryX=0.5;entryY=0;entryDx=0;entryDy=0;endArrow=none;endFill=0;" parent="1" source="40" target="tt112cmXK7fdP1q24PZr-33" edge="1">
          <mxGeometry relative="1" as="geometry">
            <mxPoint x="-112.25" y="960" as="targetPoint" />
          </mxGeometry>
        </mxCell>
        <mxCell id="40" value="has" style="shape=rhombus;double=1;perimeter=rhombusPerimeter;whiteSpace=wrap;html=1;align=center;" parent="1" vertex="1">
          <mxGeometry x="-162.25" y="702" width="81.5" height="40" as="geometry" />
        </mxCell>
        <mxCell id="43" style="edgeStyle=none;html=1;entryX=0.5;entryY=0;entryDx=0;entryDy=0;endArrow=none;endFill=0;exitX=0.5;exitY=1;exitDx=0;exitDy=0;shape=link;" parent="1" source="49" target="40" edge="1">
          <mxGeometry relative="1" as="geometry">
            <mxPoint x="-120" y="560" as="sourcePoint" />
          </mxGeometry>
        </mxCell>
        <mxCell id="66" style="edgeStyle=none;html=1;endArrow=none;endFill=0;" parent="1" source="45" edge="1">
          <mxGeometry relative="1" as="geometry">
            <mxPoint x="280" y="280" as="targetPoint" />
            <Array as="points">
              <mxPoint x="280" y="380" />
            </Array>
          </mxGeometry>
        </mxCell>
        <mxCell id="45" value="make" style="shape=rhombus;double=1;perimeter=rhombusPerimeter;whiteSpace=wrap;html=1;align=center;" parent="1" vertex="1">
          <mxGeometry x="-20" y="361" width="81.5" height="40" as="geometry" />
        </mxCell>
        <mxCell id="48" value="id" style="ellipse;whiteSpace=wrap;html=1;align=center;fontStyle=4;" parent="1" vertex="1">
          <mxGeometry x="-252.5" y="338" width="35" height="20" as="geometry" />
        </mxCell>
        <mxCell id="50" style="edgeStyle=none;html=1;endArrow=none;endFill=0;shape=link;" parent="1" source="49" target="45" edge="1">
          <mxGeometry relative="1" as="geometry" />
        </mxCell>
        <mxCell id="avje80JcjZm-CiL74gmf-218" style="edgeStyle=orthogonalEdgeStyle;rounded=0;orthogonalLoop=1;jettySize=auto;html=1;entryX=1;entryY=0.5;entryDx=0;entryDy=0;endArrow=none;endFill=0;" edge="1" parent="1" source="49" target="48">
          <mxGeometry relative="1" as="geometry" />
        </mxCell>
        <mxCell id="avje80JcjZm-CiL74gmf-219" style="edgeStyle=orthogonalEdgeStyle;rounded=0;orthogonalLoop=1;jettySize=auto;html=1;entryX=1;entryY=0.5;entryDx=0;entryDy=0;endArrow=none;endFill=0;" edge="1" parent="1" source="49" target="56">
          <mxGeometry relative="1" as="geometry" />
        </mxCell>
        <mxCell id="avje80JcjZm-CiL74gmf-220" style="edgeStyle=orthogonalEdgeStyle;rounded=0;orthogonalLoop=1;jettySize=auto;html=1;entryX=1;entryY=0.5;entryDx=0;entryDy=0;endArrow=none;endFill=0;" edge="1" parent="1" source="49" target="58">
          <mxGeometry relative="1" as="geometry" />
        </mxCell>
        <mxCell id="avje80JcjZm-CiL74gmf-223" style="edgeStyle=orthogonalEdgeStyle;rounded=0;orthogonalLoop=1;jettySize=auto;html=1;entryX=1;entryY=0.5;entryDx=0;entryDy=0;endArrow=none;endFill=0;" edge="1" parent="1" source="49" target="60">
          <mxGeometry relative="1" as="geometry" />
        </mxCell>
        <mxCell id="avje80JcjZm-CiL74gmf-224" style="edgeStyle=orthogonalEdgeStyle;rounded=0;orthogonalLoop=1;jettySize=auto;html=1;entryX=1;entryY=0.5;entryDx=0;entryDy=0;endArrow=none;endFill=0;" edge="1" parent="1" source="49" target="avje80JcjZm-CiL74gmf-222">
          <mxGeometry relative="1" as="geometry" />
        </mxCell>
        <mxCell id="49" value="payment" style="shape=ext;margin=3;double=1;whiteSpace=wrap;html=1;align=center;" parent="1" vertex="1">
          <mxGeometry x="-171.5" y="361" width="100" height="40" as="geometry" />
        </mxCell>
        <mxCell id="55" value="PK" style="text;html=1;align=center;verticalAlign=middle;resizable=0;points=[];autosize=1;strokeColor=none;fillColor=none;" parent="1" vertex="1">
          <mxGeometry x="-300" y="330" width="40" height="30" as="geometry" />
        </mxCell>
        <mxCell id="56" value="value" style="ellipse;whiteSpace=wrap;html=1;align=center;fontStyle=0" parent="1" vertex="1">
          <mxGeometry x="-297.5" y="366" width="80" height="30" as="geometry" />
        </mxCell>
        <mxCell id="58" value="description" style="ellipse;whiteSpace=wrap;html=1;align=center;fontStyle=0" parent="1" vertex="1">
          <mxGeometry x="-297.5" y="401" width="80" height="30" as="geometry" />
        </mxCell>
        <mxCell id="60" value="type" style="ellipse;whiteSpace=wrap;html=1;align=center;fontStyle=0" parent="1" vertex="1">
          <mxGeometry x="-297.5" y="436" width="80" height="30" as="geometry" />
        </mxCell>
        <mxCell id="62" value="M" style="text;html=1;align=center;verticalAlign=middle;resizable=0;points=[];autosize=1;strokeColor=none;fillColor=none;" parent="1" vertex="1">
          <mxGeometry x="-330" y="366" width="30" height="30" as="geometry" />
        </mxCell>
        <mxCell id="63" value="M" style="text;html=1;align=center;verticalAlign=middle;resizable=0;points=[];autosize=1;strokeColor=none;fillColor=none;" parent="1" vertex="1">
          <mxGeometry x="-327.5" y="401" width="30" height="30" as="geometry" />
        </mxCell>
        <mxCell id="64" value="M" style="text;html=1;align=center;verticalAlign=middle;resizable=0;points=[];autosize=1;strokeColor=none;fillColor=none;" parent="1" vertex="1">
          <mxGeometry x="-327.5" y="436" width="30" height="30" as="geometry" />
        </mxCell>
        <mxCell id="73" value="M" style="text;html=1;align=center;verticalAlign=middle;resizable=0;points=[];autosize=1;strokeColor=none;fillColor=none;" parent="1" vertex="1">
          <mxGeometry x="87" y="558.5" width="30" height="30" as="geometry" />
        </mxCell>
        <mxCell id="96" value="M" style="text;html=1;align=center;verticalAlign=middle;resizable=0;points=[];autosize=1;strokeColor=none;fillColor=none;" parent="1" vertex="1">
          <mxGeometry x="124" y="585" width="30" height="30" as="geometry" />
        </mxCell>
        <mxCell id="119" value="M" style="text;html=1;align=center;verticalAlign=middle;resizable=0;points=[];autosize=1;strokeColor=none;fillColor=none;" parent="1" vertex="1">
          <mxGeometry x="115" y="610.5" width="30" height="30" as="geometry" />
        </mxCell>
        <mxCell id="120" value="D" style="text;html=1;align=center;verticalAlign=middle;resizable=0;points=[];autosize=1;strokeColor=none;fillColor=none;" parent="1" vertex="1">
          <mxGeometry x="100" y="610.5" width="30" height="30" as="geometry" />
        </mxCell>
        <mxCell id="127" style="edgeStyle=none;html=1;entryX=0;entryY=0.5;entryDx=0;entryDy=0;endArrow=none;endFill=0;" parent="1" source="125" target="-sqe8g5yzWZDZ1aWcnI--114" edge="1">
          <mxGeometry relative="1" as="geometry" />
        </mxCell>
        <mxCell id="125" value="make" style="shape=rhombus;perimeter=rhombusPerimeter;whiteSpace=wrap;html=1;align=center;" parent="1" vertex="1">
          <mxGeometry x="402" y="529" width="78" height="38" as="geometry" />
        </mxCell>
        <mxCell id="130" style="edgeStyle=none;html=1;entryX=0.5;entryY=1;entryDx=0;entryDy=0;endArrow=none;endFill=0;exitX=0.5;exitY=0;exitDx=0;exitDy=0;" parent="1" source="-sqe8g5yzWZDZ1aWcnI--35" target="-sqe8g5yzWZDZ1aWcnI--116" edge="1">
          <mxGeometry relative="1" as="geometry">
            <mxPoint x="321.99999999999955" y="710" as="sourcePoint" />
          </mxGeometry>
        </mxCell>
        <mxCell id="146" value="verification_code" style="ellipse;whiteSpace=wrap;html=1;align=center;" parent="1" vertex="1">
          <mxGeometry x="113" y="248" width="103.5" height="20" as="geometry" />
        </mxCell>
        <mxCell id="147" value="code_valid_until" style="ellipse;whiteSpace=wrap;html=1;align=center;" parent="1" vertex="1">
          <mxGeometry x="115" y="273" width="98.5" height="20" as="geometry" />
        </mxCell>
        <mxCell id="148" value="activated" style="ellipse;whiteSpace=wrap;html=1;align=center;" parent="1" vertex="1">
          <mxGeometry x="115" y="298" width="98.5" height="20" as="geometry" />
        </mxCell>
        <mxCell id="162" value="M" style="text;html=1;align=center;verticalAlign=middle;resizable=0;points=[];autosize=1;strokeColor=none;fillColor=none;" parent="1" vertex="1">
          <mxGeometry x="85" y="298" width="30" height="30" as="geometry" />
        </mxCell>
        <mxCell id="164" value="pix_key" style="ellipse;whiteSpace=wrap;html=1;align=center;" parent="1" vertex="1">
          <mxGeometry x="588" y="1410" width="80" height="30" as="geometry" />
        </mxCell>
        <mxCell id="avje80JcjZm-CiL74gmf-166" value="M" style="text;html=1;align=center;verticalAlign=middle;resizable=0;points=[];autosize=1;strokeColor=none;fillColor=none;" vertex="1" parent="1">
          <mxGeometry x="87" y="243" width="30" height="30" as="geometry" />
        </mxCell>
        <mxCell id="avje80JcjZm-CiL74gmf-167" value="M" style="text;html=1;align=center;verticalAlign=middle;resizable=0;points=[];autosize=1;strokeColor=none;fillColor=none;" vertex="1" parent="1">
          <mxGeometry x="87" y="268" width="30" height="30" as="geometry" />
        </mxCell>
        <mxCell id="avje80JcjZm-CiL74gmf-170" value="cep_address" style="ellipse;whiteSpace=wrap;html=1;align=center;" vertex="1" parent="1">
          <mxGeometry x="585" y="1020" width="80" height="30" as="geometry" />
        </mxCell>
        <mxCell id="avje80JcjZm-CiL74gmf-198" style="edgeStyle=orthogonalEdgeStyle;rounded=0;orthogonalLoop=1;jettySize=auto;html=1;entryX=1;entryY=0.5;entryDx=0;entryDy=0;endArrow=none;endFill=0;" edge="1" parent="1" source="-sqe8g5yzWZDZ1aWcnI--3" target="146">
          <mxGeometry relative="1" as="geometry">
            <mxPoint x="220" y="257" as="targetPoint" />
          </mxGeometry>
        </mxCell>
        <mxCell id="avje80JcjZm-CiL74gmf-222" value="payd_at" style="ellipse;whiteSpace=wrap;html=1;align=center;fontStyle=0" vertex="1" parent="1">
          <mxGeometry x="-300" y="470" width="80" height="30" as="geometry" />
        </mxCell>
        <mxCell id="avje80JcjZm-CiL74gmf-225" value="M" style="text;html=1;align=center;verticalAlign=middle;resizable=0;points=[];autosize=1;strokeColor=none;fillColor=none;" vertex="1" parent="1">
          <mxGeometry x="-330" y="470" width="30" height="30" as="geometry" />
        </mxCell>
        <mxCell id="avje80JcjZm-CiL74gmf-229" value="N" style="text;html=1;align=center;verticalAlign=middle;resizable=0;points=[];autosize=1;strokeColor=none;fillColor=none;" vertex="1" parent="1">
          <mxGeometry x="487" y="520" width="30" height="30" as="geometry" />
        </mxCell>
        <mxCell id="avje80JcjZm-CiL74gmf-230" value="1" style="text;html=1;align=center;verticalAlign=middle;resizable=0;points=[];autosize=1;strokeColor=none;fillColor=none;" vertex="1" parent="1">
          <mxGeometry x="360" y="516" width="30" height="30" as="geometry" />
        </mxCell>
      </root>
    </mxGraphModel>
  </diagram>
</mxfile>
